<svg xmlns="http://www.w3.org/2000/svg" viewBox="0 0 32 32" fill="none">
  <defs>
    <linearGradient id="bg" x1="0" y1="0" x2="32" y2="32" gradientUnits="userSpaceOnUse">
      <stop offset="0%" stop-color="#0079FF"/>
      <stop offset="100%" stop-color="#8A62E2"/>
    </linearGradient>
  </defs>
  <rect width="32" height="32" rx="7" fill="url(#bg)"/>
  <g transform="translate(16,16) scale(0.3)" fill="white">
    <path d="M0,0 C-4,-12 -6,-24 0,-32 C6,-40 18,-40 22,-32 C26,-24 20,-14 0,0Z"/>
    <path d="M0,0 C-4,-12 -6,-24 0,-32 C6,-40 18,-40 22,-32 C26,-24 20,-14 0,0Z" transform="rotate(120)"/>
    <path d="M0,0 C-4,-12 -6,-24 0,-32 C6,-40 18,-40 22,-32 C26,-24 20,-14 0,0Z" transform="rotate(240)"/>
  </g>
</svg>
